# xmcd
#
# Track frame offsets:
#	225
#	26340
#	54385
#	80900
#	100770
#	124120
#	140320
#	158940
#	180713
#	201810
#	221770
#	248695
#
# Disc length: 3659 seconds
#
# Revision: 0
# Processed by: cddbd v1.4PL0 Copyright (c) Steve Scherf et al.
# Submitted via: EasyCDDAExtractor 5.0.4.1
#
DISCID=a40e480c
DTITLE=Various Artist - Coeur a Coeur avec le Pere
DYEAR=1998
DGENRE=Chanson
TTITLE0=Christine Reymond - Dieu Fidele
TTITLE1=Christine Reymond - Tu es mon seul abri
TTITLE2=Francois Reymond - Beni soit le nom du Seigneur
TTITLE3=Francois Reymond - Dans tes bras d'amour
TTITLE4=Francois Reymond - Alleluia, Gloire
TTITLE5=Francois Reymond - Le Fleuve de Dieu
TTITLE6=Christine Berly - Pere
TTITLE7=Stephanie Klein - Pere des lumieres
TTITLE8=Stephanie Klein - Embrase ma vie
TTITLE9=Terry Butler - Gloire et louange a l'Agneau
TTITLE10=Christoph Berly - Perle precieuse
TTITLE11=Christoph Berly et Stephanie Klein - Pour l'eternite
EXTD=
EXTT0=
EXTT1=
EXTT2=
EXTT3=
EXTT4=
EXTT5=
EXTT6=
EXTT7=
EXTT8=
EXTT9=
EXTT10=
EXTT11=
PLAYORDER=
